STARTFONT 2.1
COMMENT
COMMENT Converted from OpenType font "camera_lens.ttf" by "otf2bdf 3.0".
COMMENT
FONT -FreeType-Camera Lens-Medium-R-Normal--25-180-100-100-P-87-ISO10646-1
SIZE 18 100 100
FONTBOUNDINGBOX 17 15 0 0
STARTPROPERTIES 19
FOUNDRY "FreeType"
FAMILY_NAME "Camera Lens"
WEIGHT_NAME "Medium"
SLANT "R"
SETWIDTH_NAME "Normal"
ADD_STYLE_NAME ""
PIXEL_SIZE 25
POINT_SIZE 180
RESOLUTION_X 100
RESOLUTION_Y 100
SPACING "P"
AVERAGE_WIDTH 87
CHARSET_REGISTRY "ISO10646"
CHARSET_ENCODING "1"
FONT_ASCENT 20
FONT_DESCENT 4
COPYRIGHT "-FreeType-Camera Lens-Medium-R-Normal--25-180-100-100-P-87-ISO10646-1"
_OTF_FONTFILE "camera_lens.ttf"
_OTF_PSNAME "font1"
ENDPROPERTIES
CHARS 14
STARTCHAR 002D
ENCODING 45
SWIDTH 440 0
DWIDTH 11 0
BBX 9 2 1 7
BITMAP
FF80
FF80
ENDCHAR
STARTCHAR 002E
ENCODING 46
SWIDTH 160 0
DWIDTH 4 0
BBX 2 1 1 2
BITMAP
C0
ENDCHAR
STARTCHAR 0030
ENCODING 48
SWIDTH 480 0
DWIDTH 12 0
BBX 9 14 1 1
BITMAP
7F80
FF80
C080
C080
C080
C080
C080
C080
C080
C080
C080
C080
FF80
7F80
ENDCHAR
STARTCHAR 0031
ENCODING 49
SWIDTH 280 0
DWIDTH 7 0
BBX 5 14 1 1
BITMAP
F8
78
18
18
18
18
18
18
18
18
18
18
18
18
ENDCHAR
STARTCHAR 0032
ENCODING 50
SWIDTH 480 0
DWIDTH 12 0
BBX 9 14 1 1
BITMAP
7F80
FF80
C080
C080
0080
0180
0380
0E00
1C00
3800
7000
E000
FF80
FF80
ENDCHAR
STARTCHAR 0033
ENCODING 51
SWIDTH 480 0
DWIDTH 12 0
BBX 9 14 1 1
BITMAP
FF80
7F80
0180
0180
0180
0180
7F80
3F80
0180
0180
0180
0180
7F80
FF80
ENDCHAR
STARTCHAR 0034
ENCODING 52
SWIDTH 480 0
DWIDTH 12 0
BBX 10 14 1 1
BITMAP
C000
C000
C000
C000
C000
C600
C600
C600
FF80
FFC0
0600
0600
0600
0600
ENDCHAR
STARTCHAR 0035
ENCODING 53
SWIDTH 480 0
DWIDTH 12 0
BBX 9 14 1 1
BITMAP
7F80
7F80
6000
6000
6000
7F00
7F80
0080
0080
0080
0080
0080
7F80
FF80
ENDCHAR
STARTCHAR 0036
ENCODING 54
SWIDTH 480 0
DWIDTH 12 0
BBX 9 14 1 1
BITMAP
0C00
1C00
1800
3000
3000
7F00
FF80
C080
C080
C080
C080
C080
FF80
7F80
ENDCHAR
STARTCHAR 0037
ENCODING 55
SWIDTH 480 0
DWIDTH 12 0
BBX 10 14 1 1
BITMAP
FFC0
7FC0
0180
0180
0300
0300
0600
0600
0C00
0C00
1800
1800
3000
3000
ENDCHAR
STARTCHAR 0038
ENCODING 56
SWIDTH 480 0
DWIDTH 12 0
BBX 9 14 1 1
BITMAP
7F80
FF80
C080
C080
C080
C080
FF80
FF80
C080
C080
C080
C080
FF80
7F80
ENDCHAR
STARTCHAR 0039
ENCODING 57
SWIDTH 480 0
DWIDTH 12 0
BBX 9 14 1 1
BITMAP
7F80
FF80
C080
C080
C080
C080
C080
FF80
7F80
0300
0700
0600
0C00
0C00
ENDCHAR
STARTCHAR 003A
ENCODING 58
SWIDTH 160 0
DWIDTH 4 0
BBX 2 9 1 3
BITMAP
C0
C0
00
00
00
00
00
C0
C0
ENDCHAR
STARTCHAR 004D
ENCODING 77
SWIDTH 680 0
DWIDTH 17 0
BBX 15 14 2 1
BITMAP
07E0
1FF0
3FF8
7FFC
7FFE
7FFE
FFFE
FFFE
7FFE
7FFE
7FFC
3FFC
1FF8
0FE0
ENDCHAR
ENDFONT
