STARTFONT 2.1
COMMENT
COMMENT Converted from OpenType font "camera_lens.ttf" by "otf2bdf 3.0".
COMMENT
FONT -FreeType-Camera Lens-Medium-R-Normal--42-300-100-100-P-140-ISO10646-1
SIZE 30 100 100
FONTBOUNDINGBOX 28 25 0 0
STARTPROPERTIES 19
FOUNDRY "FreeType"
FAMILY_NAME "Camera Lens"
WEIGHT_NAME "Medium"
SLANT "R"
SETWIDTH_NAME "Normal"
ADD_STYLE_NAME ""
PIXEL_SIZE 42
POINT_SIZE 300
RESOLUTION_X 100
RESOLUTION_Y 100
SPACING "P"
AVERAGE_WIDTH 140
CHARSET_REGISTRY "ISO10646"
CHARSET_ENCODING "1"
FONT_ASCENT 33
FONT_DESCENT 8
COPYRIGHT "-FreeType-Camera Lens-Medium-R-Normal--42-300-100-100-P-140-ISO10646-1"
_OTF_FONTFILE "camera_lens.ttf"
_OTF_PSNAME "font1"
ENDPROPERTIES
CHARS 14
STARTCHAR 002D
ENCODING 45
SWIDTH 432 0
DWIDTH 18 0
BBX 14 3 2 12
BITMAP
7FFC
FFFC
FFFC
ENDCHAR
STARTCHAR 002E
ENCODING 46
SWIDTH 168 0
DWIDTH 7 0
BBX 3 3 2 1
BITMAP
E0
E0
E0
ENDCHAR
STARTCHAR 0030
ENCODING 48
SWIDTH 480 0
DWIDTH 20 0
BBX 15 24 2 1
BITMAP
7FFC
7FFE
FFFE
E00E
E00E
E00E
E00E
E00E
E00E
E00E
E00E
E00E
E00E
E00E
E00E
E00E
E00E
E00E
E00E
E00E
E00E
FFFE
7FFE
3FFC
ENDCHAR
STARTCHAR 0031
ENCODING 49
SWIDTH 288 0
DWIDTH 12 0
BBX 8 24 2 1
BITMAP
FF
FF
7F
07
07
07
07
07
07
07
07
07
07
07
07
07
07
07
07
07
07
07
07
07
ENDCHAR
STARTCHAR 0032
ENCODING 50
SWIDTH 480 0
DWIDTH 20 0
BBX 15 24 2 1
BITMAP
7FFC
7FFE
FFFE
E00E
E00E
E00E
E00E
000E
000E
003E
007C
00F8
01F0
03E0
07C0
0F80
3E00
7C00
F800
F000
E000
FFFE
FFFE
FFFE
ENDCHAR
STARTCHAR 0033
ENCODING 51
SWIDTH 480 0
DWIDTH 20 0
BBX 15 24 2 1
BITMAP
FFFC
FFFC
7FFE
000E
000E
000E
000E
000E
000E
000E
3FFE
3FFC
3FFE
000E
000E
000E
000E
000E
000E
000E
000E
FFFE
FFFC
FFF8
ENDCHAR
STARTCHAR 0034
ENCODING 52
SWIDTH 480 0
DWIDTH 20 0
BBX 16 24 2 1
BITMAP
E000
E000
E000
E000
E000
E000
E000
E000
E000
E0E0
E0E0
E0E0
E0E0
E0E0
FFFF
FFFF
FFFF
00E0
00E0
00E0
00E0
00E0
00E0
00E0
ENDCHAR
STARTCHAR 0035
ENCODING 53
SWIDTH 480 0
DWIDTH 20 0
BBX 15 24 2 1
BITMAP
7FFC
7FFC
7FFC
7000
7000
7000
7000
7000
7FF0
7FFC
7FFE
3FFE
000E
000E
000E
000E
000E
000E
000E
000E
000E
FFFE
FFFE
FFFC
ENDCHAR
STARTCHAR 0036
ENCODING 54
SWIDTH 480 0
DWIDTH 20 0
BBX 15 24 2 1
BITMAP
0380
03C0
0780
0700
0F00
1E00
1E00
3C00
3FF0
7FFC
7FFE
FFFE
E00E
E00E
E00E
E00E
E00E
E00E
E00E
E00E
E00E
FFFE
7FFE
3FFC
ENDCHAR
STARTCHAR 0037
ENCODING 55
SWIDTH 480 0
DWIDTH 20 0
BBX 16 24 2 1
BITMAP
FFFF
FFFF
7FFF
000E
001E
001C
003C
0038
0078
0070
00F0
00E0
01E0
01C0
03C0
0380
0780
0700
0F00
0E00
1E00
1C00
1C00
1800
ENDCHAR
STARTCHAR 0038
ENCODING 56
SWIDTH 480 0
DWIDTH 20 0
BBX 15 24 2 1
BITMAP
7FFC
7FFE
FFFE
E00E
E00E
E00E
E00E
E00E
E00E
E00E
FFFE
7FFE
FFFE
E00E
E00E
E00E
E00E
E00E
E00E
E00E
E00E
FFFE
7FFE
3FFC
ENDCHAR
STARTCHAR 0039
ENCODING 57
SWIDTH 480 0
DWIDTH 20 0
BBX 15 24 2 1
BITMAP
7FFC
7FFE
FFFE
E00E
E00E
E00E
E00E
E00E
E00E
E00E
E00E
E00E
FFFE
7FFE
3FFC
003C
0078
0070
00F0
01E0
01E0
03C0
0380
0380
ENDCHAR
STARTCHAR 003A
ENCODING 58
SWIDTH 168 0
DWIDTH 7 0
BBX 3 15 2 5
BITMAP
60
E0
E0
00
00
00
00
00
00
00
00
40
E0
E0
60
ENDCHAR
STARTCHAR 004D
ENCODING 77
SWIDTH 672 0
DWIDTH 28 0
BBX 24 24 4 1
BITMAP
00FF80
03FFE0
0FFFF0
1FFFF8
3FFFFC
3FFFFE
7FFFFE
7FFFFF
FFFFFF
FFFFFF
FFFFFF
FFFFFF
FFFFFF
FFFFFF
FFFFFF
7FFFFF
7FFFFF
7FFFFE
3FFFFC
1FFFFC
0FFFF8
07FFF0
03FFC0
007F00
ENDCHAR
ENDFONT
