STARTFONT 2.1
COMMENT
COMMENT Converted from OpenType font "camera_lens.ttf" by "otf2bdf 3.0".
COMMENT
FONT -FreeType-Camera Lens-Medium-R-Normal--72-520-100-100-P-237-ISO10646-1
SIZE 52 100 100
FONTBOUNDINGBOX 49 44 0 0
STARTPROPERTIES 19
FOUNDRY "FreeType"
FAMILY_NAME "Camera Lens"
WEIGHT_NAME "Medium"
SLANT "R"
SETWIDTH_NAME "Normal"
ADD_STYLE_NAME ""
PIXEL_SIZE 72
POINT_SIZE 520
RESOLUTION_X 100
RESOLUTION_Y 100
SPACING "P"
AVERAGE_WIDTH 237
CHARSET_REGISTRY "ISO10646"
CHARSET_ENCODING "1"
FONT_ASCENT 57
FONT_DESCENT 14
COPYRIGHT "-FreeType-Camera Lens-Medium-R-Normal--72-520-100-100-P-237-ISO10646-1"
_OTF_FONTFILE "camera_lens.ttf"
_OTF_PSNAME "font1"
ENDPROPERTIES
CHARS 14
STARTCHAR 002D
ENCODING 45
SWIDTH 443 0
DWIDTH 32 0
BBX 24 6 4 20
BITMAP
7FFFFE
FFFFFF
FFFFFF
FFFFFF
FFFFFF
7FFFFE
ENDCHAR
STARTCHAR 002E
ENCODING 46
SWIDTH 180 0
DWIDTH 13 0
BBX 5 5 4 2
BITMAP
F0
F8
F8
F8
F0
ENDCHAR
STARTCHAR 0030
ENCODING 48
SWIDTH 470 0
DWIDTH 34 0
BBX 26 42 4 2
BITMAP
0FFFFC00
3FFFFF00
7FFFFF80
FFFFFF80
FFFFFFC0
FFFFFFC0
F80007C0
F80007C0
F80007C0
F80007C0
F80007C0
F80007C0
F80007C0
F80007C0
F80007C0
F80007C0
F80007C0
F80007C0
F80007C0
F80007C0
F80007C0
F80007C0
F80007C0
F80007C0
F80007C0
F80007C0
F80007C0
F80007C0
F80007C0
F80007C0
F80007C0
F80007C0
F80007C0
F80007C0
F80007C0
F80007C0
FC000FC0
FFFFFFC0
FFFFFFC0
7FFFFF80
3FFFFF00
1FFFFE00
ENDCHAR
STARTCHAR 0031
ENCODING 49
SWIDTH 290 0
DWIDTH 21 0
BBX 14 42 4 2
BITMAP
7FF8
FFF8
FFFC
FFFC
FFFC
3FFC
00FC
00FC
00FC
00FC
00FC
00FC
00FC
00FC
00FC
00FC
00FC
00FC
00FC
00FC
00FC
00FC
00FC
00FC
00FC
00FC
00FC
00FC
00FC
00FC
00FC
00FC
00FC
00FC
00FC
00FC
00FC
00FC
00FC
00FC
00FC
0078
ENDCHAR
STARTCHAR 0032
ENCODING 50
SWIDTH 470 0
DWIDTH 34 0
BBX 26 42 4 2
BITMAP
0FFFFC00
3FFFFF00
7FFFFF80
FFFFFF80
FFFFFFC0
FFFFFFC0
F80007C0
F80007C0
F80007C0
F80007C0
F80007C0
F80007C0
700007C0
000007C0
000007C0
00000FC0
00003FC0
00007FC0
0000FF80
0001FF00
0003FC00
0007F800
001FF000
003FE000
007FC000
00FF8000
01FE0000
03FC0000
0FF80000
1FF00000
3FE00000
7FC00000
FF800000
FE000000
FC000000
F8000000
F8000000
FFFFFF80
FFFFFFC0
FFFFFFC0
FFFFFFC0
FFFFFF80
ENDCHAR
STARTCHAR 0033
ENCODING 51
SWIDTH 470 0
DWIDTH 34 0
BBX 25 42 4 2
BITMAP
7FFFF800
FFFFFE00
FFFFFF00
FFFFFF80
FFFFFF80
3FFFFF80
00000F80
00000F80
00000F80
00000F80
00000F80
00000F80
00000F80
00000F80
00000F80
00000F80
00000F80
00000F80
0FFFFF80
1FFFFF80
1FFFFF00
1FFFFF80
1FFFFF80
07FFFF80
00000F80
00000F80
00000F80
00000F80
00000F80
00000F80
00000F80
00000F80
00000F80
00000F80
00000F80
00000F80
00001F80
FFFFFF80
FFFFFF80
FFFFFF00
FFFFFE00
FFFFFC00
ENDCHAR
STARTCHAR 0034
ENCODING 52
SWIDTH 484 0
DWIDTH 35 0
BBX 27 42 4 2
BITMAP
70000000
F8000000
F8000000
F8000000
F8000000
F8000000
F8000000
F8000000
F8000000
F8000000
F8000000
F8000000
F8000000
F8000000
F8000000
F8000000
F803C000
F807E000
F807E000
F807E000
F807E000
F807E000
F807E000
F807E000
F807E000
FFFFFFC0
FFFFFFE0
FFFFFFE0
FFFFFFE0
FFFFFFC0
0007E000
0007E000
0007E000
0007E000
0007E000
0007E000
0007E000
0007E000
0007E000
0007E000
0007E000
0003C000
ENDCHAR
STARTCHAR 0035
ENCODING 53
SWIDTH 470 0
DWIDTH 34 0
BBX 26 42 4 2
BITMAP
3FFFFE00
7FFFFF00
7FFFFF80
7FFFFF00
7FFFFF00
7FFFFC00
7E000000
7E000000
7E000000
7E000000
7E000000
7C000000
7C000000
7C000000
7C000000
7FFFF800
7FFFFE00
7FFFFF00
7FFFFF80
7FFFFFC0
3FFFFFC0
00000FC0
000007C0
000007C0
000007C0
000007C0
000007C0
000007C0
000007C0
000007C0
000007C0
000007C0
000007C0
000007C0
000007C0
000007C0
00000FC0
FFFFFFC0
FFFFFFC0
FFFFFF80
FFFFFF00
FFFFFE00
ENDCHAR
STARTCHAR 0036
ENCODING 54
SWIDTH 470 0
DWIDTH 34 0
BBX 26 42 4 2
BITMAP
000E0000
001F0000
003F0000
003F0000
007E0000
00FE0000
00FC0000
01FC0000
01F80000
03F00000
07F00000
07E00000
0FE00000
0FC00000
1FC00000
3FFFF800
3FFFFE00
7FFFFF00
7FFFFF80
FFFFFFC0
FFFFFFC0
F8000FC0
F80007C0
F80007C0
F80007C0
F80007C0
F80007C0
F80007C0
F80007C0
F80007C0
F80007C0
F80007C0
F80007C0
F80007C0
F80007C0
F80007C0
FC000FC0
FFFFFFC0
FFFFFFC0
7FFFFF80
3FFFFF00
1FFFFE00
ENDCHAR
STARTCHAR 0037
ENCODING 55
SWIDTH 484 0
DWIDTH 35 0
BBX 28 42 4 2
BITMAP
7FFFFFE0
FFFFFFF0
FFFFFFF0
FFFFFFF0
FFFFFFE0
3FFFFFE0
00000FC0
00000FC0
00001F80
00001F80
00003F00
00003F00
00007E00
00007E00
0000FC00
0000FC00
0001F800
0001F800
0003F000
0003F000
0007E000
0007E000
000FC000
000FC000
001F8000
001F8000
003F0000
003F0000
007E0000
007E0000
00FC0000
00FC0000
01F80000
01F80000
03F00000
03F00000
07E00000
07E00000
0FC00000
0FC00000
0F800000
07800000
ENDCHAR
STARTCHAR 0038
ENCODING 56
SWIDTH 470 0
DWIDTH 34 0
BBX 26 42 4 2
BITMAP
0FFFFC00
3FFFFF00
7FFFFF80
FFFFFF80
FFFFFFC0
FFFFFFC0
F80007C0
F80007C0
F80007C0
F80007C0
F80007C0
F80007C0
F80007C0
F80007C0
F80007C0
F80007C0
F80007C0
F8000FC0
FFFFFFC0
FFFFFFC0
7FFFFF80
FFFFFF80
FFFFFFC0
FFFFFFC0
F80007C0
F80007C0
F80007C0
F80007C0
F80007C0
F80007C0
F80007C0
F80007C0
F80007C0
F80007C0
F80007C0
F80007C0
FC000FC0
FFFFFFC0
FFFFFFC0
7FFFFF80
3FFFFF00
1FFFFE00
ENDCHAR
STARTCHAR 0039
ENCODING 57
SWIDTH 470 0
DWIDTH 34 0
BBX 26 42 4 2
BITMAP
0FFFFC00
3FFFFF00
7FFFFF80
FFFFFF80
FFFFFFC0
FFFFFFC0
F80007C0
F80007C0
F80007C0
F80007C0
F80007C0
F80007C0
F80007C0
F80007C0
F80007C0
F80007C0
F80007C0
F80007C0
F80007C0
F80007C0
F8000FC0
FFFFFFC0
FFFFFFC0
FFFFFF80
7FFFFF80
3FFFFF00
0FFFFF00
0000FE00
0000FC00
0001FC00
0001F800
0003F800
0007F000
0007E000
000FE000
000FC000
001FC000
003F8000
003F0000
003F0000
003E0000
001E0000
ENDCHAR
STARTCHAR 003A
ENCODING 58
SWIDTH 180 0
DWIDTH 13 0
BBX 5 25 4 9
BITMAP
F8
F8
F8
F8
70
00
00
00
00
00
00
00
00
00
00
00
00
00
00
70
F8
F8
F8
F8
70
ENDCHAR
STARTCHAR 004D
ENCODING 77
SWIDTH 678 0
DWIDTH 49 0
BBX 42 42 7 2
BITMAP
0000FFC00000
0007FFF80000
001FFFFE0000
007FFFFF8000
00FFFFFFC000
01FFFFFFE000
03FFFFFFF000
07FFFFFFF800
0FFFFFFFFC00
1FFFFFFFFE00
1FFFFFFFFF00
3FFFFFFFFF00
3FFFFFFFFF80
7FFFFFFFFF80
7FFFFFFFFF80
7FFFFFFFFFC0
FFFFFFFFFFC0
FFFFFFFFFFC0
FFFFFFFFFFC0
FFFFFFFFFFC0
FFFFFFFFFFC0
FFFFFFFFFFC0
FFFFFFFFFFC0
FFFFFFFFFFC0
FFFFFFFFFFC0
FFFFFFFFFFC0
7FFFFFFFFFC0
7FFFFFFFFF80
7FFFFFFFFF80
3FFFFFFFFF80
3FFFFFFFFF00
1FFFFFFFFF00
1FFFFFFFFE00
0FFFFFFFFC00
07FFFFFFFC00
03FFFFFFF800
01FFFFFFF000
00FFFFFFE000
007FFFFF8000
001FFFFF0000
000FFFFC0000
0001FFE00000
ENDCHAR
ENDFONT
